<?xml version="1.0" standalone="no"?>
<!DOCTYPE svg PUBLIC "-//W3C//DTD SVG 20010904//EN"
 "http://www.w3.org/TR/2001/REC-SVG-20010904/DTD/svg10.dtd">
<svg version="1.0" xmlns="http://www.w3.org/2000/svg"
 width="512.000000pt" height="512.000000pt" viewBox="0 0 512.000000 512.000000"
 preserveAspectRatio="xMidYMid meet">
<metadata>
Created by potrace 1.11, written by Peter Selinger 2001-2013
</metadata>
<g transform="translate(0.000000,512.000000) scale(0.100000,-0.100000)"
fill="#000000" stroke="none">
<path d="M1541 4895 c-59 -19 -143 -78 -175 -123 -65 -95 -69 -117 -70 -362
l-2 -225 -459 -2 c-253 -1 -485 -4 -516 -6 -113 -10 -215 -101 -235 -212 -4
-21 -7 -699 -7 -1505 0 -1555 -1 -1506 46 -1575 41 -59 112 -108 173 -119 50
-10 3577 -7 3610 3 73 21 154 85 170 134 11 34 11 34 135 -193 156 -286 203
-362 253 -407 68 -63 137 -88 236 -87 220 1 376 197 331 415 -7 34 -40 105
-86 189 -41 73 -75 136 -75 138 0 2 -8 16 -18 30 -11 15 -36 59 -57 97 -57
105 -79 145 -111 200 -16 28 -38 66 -48 86 l-19 36 31 45 c182 265 205 602 60
891 -15 31 -25 57 -21 57 4 0 0 6 -9 13 -8 6 -27 29 -41 50 -65 99 -207 221
-327 282 -62 31 -187 75 -194 67 -9 -8 -9 -18 -11 568 -1 300 -5 565 -9 590
-10 53 -51 116 -100 154 -74 56 -80 57 -587 57 l-467 1 -4 236 -3 237 -28 55
c-49 96 -127 161 -222 186 -74 20 -1080 19 -1144 -1z m1155 -162 c22 -12 53
-41 70 -64 l29 -42 3 -223 2 -223 -670 0 -670 0 0 47 c-2 200 2 363 11 397 14
51 72 107 125 120 23 6 247 10 549 9 499 0 511 -1 551 -21z m1202 -725 c59
-41 57 -13 58 -614 l0 -551 -100 -6 c-107 -7 -209 -31 -302 -72 -31 -14 -60
-25 -65 -25 -5 0 -8 15 -7 33 1 41 -16 74 -44 83 -13 4 -121 7 -241 7 -235 -1
-260 -6 -269 -55 -2 -13 -4 -364 -3 -780 l0 -757 22 -23 c22 -21 29 -22 236
-23 194 -1 217 -2 243 -20 31 -20 162 -87 179 -90 6 -2 35 -10 67 -19 70 -21
151 -32 246 -35 l43 -1 -5 -36 c-7 -43 -32 -79 -67 -96 -21 -10 -369 -13
-1790 -12 -970 0 -1775 4 -1789 8 -27 10 -38 20 -61 56 -15 23 -16 165 -17
1480 0 945 3 1466 9 1487 11 34 49 68 84 75 11 2 814 3 1785 3 1627 0 1767 -1
1788 -17z m-570 -1343 c-1 -36 -8 -49 -46 -86 -58 -57 -126 -153 -168 -237
l-33 -67 -1 216 0 217 125 0 125 0 -2 -43z m712 3 c8 -3 31 -8 50 -12 206 -45
392 -194 486 -391 112 -233 92 -505 -51 -725 -275 -421 -909 -435 -1199 -26
-57 79 -89 144 -117 236 -20 63 -23 96 -23 205 1 94 5 142 17 173 9 23 14 42
13 42 -2 0 3 19 13 43 61 158 188 303 326 374 139 71 229 92 370 88 55 -2 107
-5 115 -7z m-886 -1180 c26 -43 51 -80 57 -83 25 -16 2 -25 -61 -25 l-70 0 1
128 c0 116 2 124 13 92 7 -19 34 -70 60 -112z m1464 -385 c55 -98 112 -200
127 -227 16 -28 40 -70 55 -95 14 -26 29 -53 33 -61 4 -8 16 -30 27 -47 60
-100 19 -237 -85 -284 -103 -47 -204 2 -270 133 -14 29 -37 71 -49 93 -264
463 -276 487 -253 493 41 11 192 90 247 131 30 22 58 40 62 41 3 0 51 -80 106
-177z"/>
<path d="M2755 3605 c-31 -30 -33 -78 -6 -102 11 -9 18 -19 16 -22 -1 -3 34
-6 78 -5 45 0 85 -1 89 -3 6 -3 -124 -118 -337 -296 -27 -23 -72 -62 -100 -86
-27 -24 -61 -53 -75 -65 -14 -11 -51 -42 -82 -69 l-57 -47 -313 131 c-416 175
-405 171 -428 159 -10 -5 -120 -110 -245 -232 -125 -123 -297 -291 -381 -373
-176 -172 -186 -190 -135 -244 27 -29 36 -33 63 -27 17 3 39 14 48 24 52 55
693 678 700 680 5 2 28 -6 51 -17 24 -12 46 -21 51 -21 4 0 31 -11 60 -25 28
-14 55 -25 59 -25 4 0 36 -13 71 -29 35 -15 126 -54 203 -87 77 -32 143 -62
146 -67 3 -5 9 -8 13 -7 3 1 19 -1 36 -5 16 -3 38 -1 49 5 17 9 281 229 409
341 19 16 36 29 39 29 3 0 11 6 17 14 6 8 58 53 116 101 58 49 115 97 128 109
l23 21 -6 -106 -7 -106 27 -21 c15 -12 39 -22 52 -22 26 0 79 48 80 72 0 7 3
45 7 83 4 39 9 86 11 105 7 84 18 176 22 182 5 10 -17 50 -36 65 -11 9 -76 12
-224 13 -208 0 -208 0 -232 -25z"/>
<path d="M1469 2371 c-22 -17 -24 -27 -25 -109 -1 -49 -4 -94 -8 -100 -3 -6
-3 -13 1 -15 10 -6 9 -370 -1 -385 -3 -6 -3 -13 1 -15 10 -6 9 -169 -1 -185
-4 -6 -4 -12 1 -12 4 0 7 -61 7 -136 -1 -128 0 -138 21 -162 l23 -26 218 -1
c227 -1 267 4 285 36 6 13 10 206 11 547 l0 527 -25 28 -25 27 -230 0 c-211 0
-232 -2 -253 -19z m372 -140 c4 -1 6 -19 6 -40 -1 -25 -5 -37 -11 -33 -7 4 -7
1 0 -9 7 -9 10 -133 10 -389 l-1 -375 -122 -2 -122 -3 -3 28 c-2 15 0 48 3 75
3 26 3 47 0 47 -7 0 -5 675 2 693 3 9 37 12 118 10 63 0 117 -1 120 -2z"/>
<path d="M2240 2267 c-16 -4 -34 -16 -40 -27 -12 -22 -17 -931 -6 -968 14 -43
45 -48 285 -47 l223 0 22 26 22 26 0 477 -1 478 -24 19 c-13 10 -31 19 -40 20
-118 4 -418 2 -441 -4z m350 -518 l0 -370 -122 3 -123 3 -1 366 0 366 123 1
123 1 0 -370z"/>
<path d="M883 2003 c4 -7 -15 -10 -54 -9 -70 2 -114 -18 -120 -56 -3 -12 -4
-168 -4 -346 1 -317 1 -323 23 -344 21 -21 29 -22 257 -22 230 -1 235 0 257
22 22 22 22 25 23 341 0 175 -3 332 -7 348 -13 49 -42 57 -206 58 -81 0 -153
4 -161 9 -9 6 -12 5 -8 -1z m227 -394 l0 -230 -125 2 -124 1 0 228 0 228 124
0 125 0 0 -229z"/>
</g>
</svg>
